<svg xmlns="http://www.w3.org/2000/svg" height="48" viewBox="0 96 960 960" width="48"><path d="M480.527 924Q456 924 439.5 907.191 423 890.383 423 866.779q0-23.079 16.38-40.929Q455.759 808 479.473 808 504 808 520.5 825.801t16.5 41Q537 890 520.67 907q-16.329 17-40.143 17Zm0-291Q456 633 439.5 616.62 423 600.241 423 576.527 423 552 439.38 535.5q16.379-16.5 40.093-16.5Q504 519 520.5 535.33q16.5 16.329 16.5 40.143Q537 600 520.67 616.5 504.341 633 480.527 633Zm0-289Q456 344 439.5 326.739t-16.5-41.5Q423 261 439.38 244q16.379-17 40.093-17Q504 227 520.5 244.078q16.5 17.077 16.5 41.108 0 24.443-16.33 41.629Q504.341 344 480.527 344Z"/></svg>